<svg width="22" height="24" viewBox="0 0 22 24" fill="none" xmlns="http://www.w3.org/2000/svg">
<path d="M8.33634 19.0368C3.33634 20.5368 3.33634 16.5368 1.33634 16.0368M15.3363 22.0368V18.1668C15.3738 17.6899 15.3094 17.2106 15.1474 16.7606C14.9853 16.3106 14.7293 15.9002 14.3963 15.5568C17.5363 15.2068 20.8363 14.0168 20.8363 8.55678C20.8361 7.16061 20.299 5.81798 19.3363 4.80678C19.7922 3.58529 19.76 2.23513 19.2463 1.03678C19.2463 1.03678 18.0663 0.686784 15.3363 2.51678C13.0443 1.89561 10.6283 1.89561 8.33634 2.51678C5.60634 0.686784 4.42634 1.03678 4.42634 1.03678C3.91271 2.23513 3.88048 3.58529 4.33634 4.80678C3.36647 5.82548 2.82886 7.18025 2.83634 8.58678C2.83634 14.0068 6.13634 15.1968 9.27634 15.5868C8.94734 15.9268 8.6936 16.3322 8.53165 16.7767C8.36969 17.2212 8.30315 17.6948 8.33634 18.1668V22.0368" stroke="black" stroke-width="2" stroke-linecap="round" stroke-linejoin="round"/>
</svg>
